<svg width="990" height="577" viewBox="0 0 990 577" fill="none" xmlns="http://www.w3.org/2000/svg">
<path d="M94.2928 483.328C104.263 482.318 112.793 478.628 121.263 474.828C141.223 465.858 161.683 458.778 183.923 458.948C197.333 459.048 209.463 462.928 219.453 472.358C222.633 475.358 226.033 478.108 229.253 481.078C233.393 484.888 236.443 485.248 240.903 481.878C244.383 479.238 247.843 476.508 250.983 473.488C263.733 461.198 279.423 457.338 296.273 459.178C314.983 461.228 333.053 466.358 350.073 474.758C358.193 478.768 366.793 481.518 375.583 483.648C376.393 483.848 377.413 484.388 377.943 483.598C378.733 482.428 377.453 481.898 376.763 481.298C367.903 473.568 358.043 467.668 346.403 465.298C328.203 461.588 311.833 453.338 295.453 445.078C293.313 443.998 291.193 442.868 289.093 441.718C288.373 441.318 287.483 440.878 287.683 439.848C287.913 438.658 288.953 438.378 289.963 438.398C292.683 438.438 295.223 439.348 297.723 440.318C307.583 444.128 316.473 450.078 326.593 453.358C335.453 456.228 344.263 459.178 353.403 461.118C361.183 462.768 368.433 465.788 375.083 470.278C382.213 475.088 389.553 479.598 396.763 484.298C399.703 486.218 401.063 488.258 398.473 491.878C395.923 495.448 400.223 502.138 405.803 503.388C409.333 504.178 411.293 505.758 411.533 509.508C411.923 515.888 410.643 517.538 404.213 518.138C389.103 519.538 374.103 517.198 359.043 516.768C343.133 516.308 327.263 512.458 311.353 514.708C298.003 516.598 284.883 514.348 271.653 514.468C245.533 514.698 219.413 514.568 193.293 514.508C185.113 514.488 177.033 516.588 168.803 515.478C150.853 513.058 133.013 515.608 115.153 516.788C105.863 517.398 96.5728 518.158 87.2428 517.978C80.6328 517.848 74.0828 519.508 67.4128 518.218C62.4128 517.248 59.9528 515.558 59.6928 511.898C59.3628 507.198 61.0228 504.848 65.8728 503.308C69.4728 502.168 71.8728 499.808 73.4028 496.378C74.1528 494.678 74.3928 493.208 73.0228 491.708C70.3628 488.798 71.7028 486.498 74.4028 484.728C89.8928 474.568 104.423 462.958 123.613 459.468C137.883 456.878 151.533 451.598 164.383 444.528C169.183 441.888 174.383 439.918 179.753 438.658C181.193 438.318 183.273 437.938 183.823 439.778C184.363 441.578 182.193 441.758 181.053 442.378C163.263 451.958 145.223 460.978 125.303 465.318C115.563 467.438 106.963 471.668 99.3128 477.938C97.5828 479.308 95.5328 480.398 94.2928 483.328ZM223.703 502.008C262.663 502.008 301.643 501.518 340.583 502.278C353.773 502.538 367.093 502.728 380.273 504.428C381.793 504.628 383.813 505.448 384.493 502.978C385.673 498.678 382.413 493.708 378.003 492.958C375.363 492.518 372.733 492.058 370.123 491.478C354.953 488.118 340.583 481.978 325.443 478.538C322.143 477.788 319.233 476.798 317.953 473.188C317.413 471.678 315.923 470.838 314.393 470.398C303.193 467.248 291.893 465.028 280.173 466.958C265.403 469.388 253.923 477.408 243.983 488.108C239.553 492.868 232.143 493.138 227.793 488.478C223.353 483.718 218.313 479.618 213.703 475.058C210.103 471.508 205.833 469.068 200.923 467.928C185.933 464.458 171.213 466.318 156.653 470.498C155.543 470.818 154.453 471.368 154.063 472.508C152.523 476.928 148.693 478.078 144.793 478.918C127.013 482.768 110.473 491.108 92.2128 493.238C89.2728 493.578 86.0628 499.878 87.1628 502.888C88.3828 506.218 91.3928 504.558 93.4028 504.248C104.613 502.528 115.923 502.568 127.193 502.268C159.353 501.408 191.523 501.098 223.703 502.008Z" fill="#1D6877"/>
<path d="M640.403 434.148C641.923 406.968 643.063 386.408 644.213 365.848C644.373 363.048 644.113 359.948 647.633 358.858C651.323 357.708 654.493 359.658 656.713 361.898C672.633 377.968 683.293 397.798 695.313 416.658C701.763 426.768 707.543 437.278 713.323 447.778C713.833 448.708 714.183 450.328 715.493 450.018C717.273 449.608 716.913 447.748 716.833 446.458C715.833 431.118 716.043 415.718 714.243 400.418C713.363 392.988 712.693 385.538 712.813 378.048C712.893 372.828 720.813 365.808 725.993 366.518C729.763 367.038 730.393 370.108 730.463 373.198C730.643 380.958 730.733 388.718 730.783 396.478C730.943 421.458 732.853 446.388 732.603 471.368C732.583 473.478 732.573 475.618 732.223 477.688C731.383 482.618 724.193 487.868 719.343 487.118C716.863 486.738 715.643 484.648 714.493 482.708C707.733 471.308 701.093 459.838 694.253 448.478C687.783 437.728 681.313 426.968 674.483 416.438C669.793 409.198 665.963 401.498 661.573 394.098C660.953 393.048 660.563 391.318 659.033 391.748C657.493 392.178 658.113 393.898 658.083 395.088C658.013 398.188 658.023 401.298 658.073 404.408C658.463 426.828 656.433 449.208 657.073 471.638C657.143 474.198 656.723 476.758 655.433 478.998C653.323 482.638 652.333 486.538 652.193 490.698C652.103 493.218 651.303 495.168 648.433 495.418C645.553 495.678 643.633 494.548 642.633 491.658C641.053 487.048 640.503 482.268 640.453 477.488C640.313 460.848 640.403 444.188 640.403 434.148Z" fill="#1D6877"/>
<path d="M806.923 485.818C792.573 484.978 778.963 481.918 765.403 478.568C761.893 477.698 759.453 475.398 757.833 472.268C756.073 468.878 753.993 465.748 751.513 462.838C749.103 460.008 748.353 456.658 750.563 453.498C752.893 450.168 756.373 450.418 759.723 451.838C765.163 454.158 770.643 456.398 775.713 459.528C783.773 464.518 792.193 464.708 800.773 460.868C806.213 458.438 811.133 455.168 815.983 451.748C819.793 449.058 820.503 445.618 819.213 441.348C815.683 429.668 806.943 423.478 792.593 422.298C784.043 421.598 775.613 420.618 767.433 417.288C749.313 409.908 747.983 380.318 763.763 370.048C771.503 365.008 779.413 360.578 788.253 357.848C802.613 353.418 824.383 361.448 832.373 374.188C835.723 379.528 833.753 384.108 827.573 384.958C824.883 385.328 822.353 385.988 819.883 387.098C816.733 388.518 814.563 387.848 813.513 384.148C811.433 376.848 807.403 374.318 799.623 376.138C787.333 379.008 779.343 387.298 773.903 398.248C772.503 401.078 774.093 402.618 778.473 402.418C784.573 402.138 790.583 402.768 796.593 403.638C811.473 405.788 824.033 411.778 832.573 424.818C836.503 430.818 838.683 437.088 837.983 444.328C837.363 450.778 838.083 457.278 836.973 463.748C834.713 476.898 826.683 484.428 813.353 485.458C811.103 485.628 808.853 485.708 806.923 485.818Z" fill="#1D6877"/>
<path d="M437.023 478.248C437.023 484.878 437.023 491.498 437.023 498.128C437.023 501.438 436.583 504.618 434.253 507.208C431.263 510.528 427.663 510.668 424.823 507.298C421.523 503.378 419.583 498.898 420.793 493.618C423.533 481.618 422.843 469.558 422.083 457.398C420.143 426.708 418.073 396.008 420.643 365.248C420.953 361.498 422.603 358.938 425.943 357.258C440.073 350.108 454.663 348.738 469.183 355.268C487.833 363.658 500.023 377.888 504.343 398.168C505.813 405.068 503.363 411.878 502.713 418.728C500.683 440.088 483.803 448.188 469.263 449.348C460.703 450.038 452.073 449.948 443.473 450.178C437.653 450.328 436.413 451.418 436.343 457.098C436.263 464.158 436.323 471.208 436.323 478.268C436.543 478.248 436.783 478.248 437.023 478.248ZM436.923 404.288C436.923 410.128 436.833 418.598 436.953 427.058C437.013 431.558 438.953 432.908 443.213 431.888C447.173 430.938 451.173 430.098 455.093 428.998C465.913 425.948 476.173 422.048 483.173 412.338C488.753 404.598 488.823 395.218 482.653 387.848C471.103 374.068 455.793 370.788 438.823 372.328C435.903 372.588 435.343 374.598 435.503 377.198C436.003 385.338 436.373 393.508 436.923 404.288Z" fill="#D25827"/>
<path d="M197.543 147.968C189.713 147.508 179.133 146.148 169.253 141.408C166.823 140.238 164.573 138.828 162.443 137.188C161.243 136.268 159.813 134.908 158.293 135.888C156.923 136.778 157.803 138.518 158.023 139.838C160.003 152.188 156.603 162.928 146.493 170.198C136.093 177.668 124.053 181.238 110.973 180.328C104.723 179.888 98.7328 178.578 92.9928 176.008C81.1428 170.688 75.9428 159.688 79.5228 147.158C80.7328 142.928 82.4728 138.928 85.0228 135.318C88.9228 129.788 92.8628 124.278 96.7628 118.738C107.073 104.108 119.673 102.998 136.253 110.888C139.843 112.598 142.753 115.358 145.923 117.698C146.753 118.308 147.523 119.598 148.823 118.798C149.803 118.198 149.663 117.018 149.513 116.088C147.053 100.578 155.533 89.8077 165.263 79.5577C168.373 76.2877 171.513 73.0477 174.453 69.6277C184.003 58.5177 197.883 55.5677 210.043 63.4077C230.853 76.8277 241.713 95.7377 239.473 121.158C238.553 131.648 232.703 138.678 223.803 143.198C216.583 146.888 208.683 148.548 197.543 147.968ZM201.793 137.278C203.903 137.108 206.013 136.928 208.123 136.758C220.963 135.728 230.053 126.268 229.303 113.418C228.303 96.2777 218.393 83.9977 205.583 73.7077C204.043 72.4677 201.963 72.0877 199.933 72.2877C189.323 73.3377 181.183 78.2777 176.613 88.0577C172.713 96.4077 172.473 105.528 171.903 114.538C171.793 116.208 172.603 118.758 169.813 118.758C167.383 118.758 168.003 116.398 167.763 114.818C167.043 110.088 166.343 105.348 165.573 100.618C165.423 99.7177 165.513 98.4777 164.133 98.4077C163.113 98.3577 162.833 99.3477 162.393 100.028C156.773 108.798 158.753 121.268 167.133 127.458C177.403 135.058 189.123 137.958 201.793 137.278ZM113.123 171.328C122.303 170.338 131.113 168.658 138.693 163.078C145.913 157.768 149.863 150.668 147.863 141.868C145.783 132.688 141.623 124.518 130.583 123.088C128.943 122.878 127.343 122.108 125.783 121.478C114.503 116.918 102.653 123.318 100.193 135.258C99.0428 140.868 98.9228 146.448 100.023 152.078C100.343 153.698 100.623 155.718 98.3828 156.288C96.0928 156.868 95.6028 155.048 95.0928 153.348C94.4828 151.318 93.8228 149.308 93.0828 147.328C92.7528 146.458 92.5828 145.198 91.3628 145.198C90.2228 145.198 89.8728 146.338 89.4128 147.208C86.2728 153.128 88.4528 160.898 94.4328 165.678C99.9728 170.118 106.793 170.038 113.123 171.328Z" fill="#1D6877"/>
<path d="M850.993 482.008C851.813 465.138 856.483 451.508 860.863 437.788C867.213 417.888 872.243 397.638 876.393 377.168C877.383 372.298 878.933 367.628 881.273 363.238C882.913 360.168 885.333 357.968 888.913 358.078C892.163 358.178 894.043 360.478 895.543 363.278C911.263 392.618 926.413 422.248 940.033 452.628C942.843 458.898 946.333 464.998 947.393 471.918C948.493 479.048 947.623 480.388 941.163 483.308C930.953 487.928 928.173 486.868 923.573 476.518C921.323 471.458 920.333 466.018 918.953 460.698C917.113 453.588 916.103 452.578 908.943 452.338C900.623 452.058 892.293 451.948 883.973 451.898C878.713 451.868 875.763 453.918 874.293 459.008C871.663 468.098 869.493 477.308 869.183 486.838C869.113 489.098 869.013 491.348 868.193 493.498C866.803 497.128 861.833 499.068 859.323 496.278C855.123 491.628 851.433 486.398 850.993 482.008ZM894.553 430.708C894.553 430.748 894.553 430.778 894.553 430.818C897.513 430.818 900.473 430.958 903.423 430.788C907.663 430.548 909.473 428.308 908.213 424.338C904.723 413.348 901.083 402.388 895.133 392.388C894.483 391.298 893.823 389.998 892.303 390.268C891.073 390.488 890.613 391.688 890.333 392.798C887.523 403.688 884.693 414.578 881.953 425.488C881.103 428.868 882.703 430.618 886.103 430.698C888.923 430.758 891.733 430.708 894.553 430.708Z" fill="#1D6877"/>
<path d="M576.193 362.598C590.803 361.238 604.253 364.508 617.863 365.568C621.473 365.848 623.773 368.518 624.723 371.608C625.533 374.238 621.723 377.818 617.993 378.658C614.923 379.348 611.803 378.898 608.713 378.798C597.683 378.438 586.843 376.628 576.003 374.748C570.063 373.718 568.233 375.288 569.083 381.278C570.553 391.638 570.443 402.108 571.593 412.478C572.363 419.378 573.303 420.298 580.203 419.048C589.753 417.318 599.273 417.318 608.843 418.698C610.853 418.988 612.693 419.568 614.333 420.728C618.693 423.818 618.253 428.758 613.393 431.058C608.293 433.468 602.713 433.498 597.263 434.098C590.953 434.798 584.633 435.408 578.313 435.928C574.153 436.268 572.323 438.368 572.413 442.518C572.623 452.528 572.293 462.538 573.253 472.538C573.623 476.348 575.073 478.348 579.213 478.608C589.353 479.238 599.203 477.478 608.933 475.178C617.063 473.268 624.813 473.618 632.523 476.798C635.693 478.108 637.283 480.158 636.733 483.648C636.203 487.018 634.143 488.298 630.843 488.448C618.713 488.988 606.733 491.098 594.653 492.248C587.893 492.888 581.143 493.078 574.423 491.788C567.333 490.418 561.903 486.368 561.213 476.878C559.843 457.908 556.793 439.068 556.423 419.988C556.173 406.878 555.953 393.768 554.763 380.688C554.203 374.538 557.223 369.228 560.583 364.248C561.673 362.638 563.453 362.628 565.163 362.618C569.113 362.588 573.073 362.598 576.193 362.598Z" fill="#1D6877"/>
<path d="M367.523 103.008C371.333 105.518 374.393 107.408 377.323 109.498C403.573 128.218 397.323 158.388 381.033 174.178C367.443 187.338 346.803 183.158 336.633 165.928C329.053 153.088 329.333 138.988 332.023 124.798C332.283 123.408 332.603 122.038 332.883 120.648C333.083 119.668 333.343 118.588 332.183 118.078C330.993 117.558 330.403 118.638 329.783 119.348C324.413 125.458 322.313 132.778 321.763 140.718C321.203 148.808 318.363 151.418 310.343 151.618C303.313 151.798 296.983 149.978 291.563 145.328C284.393 139.168 285.753 130.548 294.533 126.938C301.293 124.158 308.023 123.848 314.423 127.828C317.713 129.878 318.913 128.568 319.593 125.408C320.443 121.408 321.443 117.438 323.103 113.678C326.243 106.568 331.353 101.668 339.043 99.7377C343.583 98.5977 347.933 96.9777 352.033 94.7477C357.353 91.8377 363.003 91.3477 368.873 92.0977C370.743 92.3377 372.413 93.0277 373.773 94.3677C375.403 95.9777 376.133 97.8677 375.403 100.138C374.703 102.338 372.823 102.468 370.963 102.628C370.173 102.698 369.383 102.808 367.523 103.008ZM342.133 144.558C342.273 149.478 344.143 157.428 350.673 163.568C356.693 169.238 362.943 170.678 368.703 167.708C373.003 165.488 375.953 161.748 378.063 157.608C382.313 149.248 384.953 140.648 380.123 131.398C374.753 121.118 365.513 116.048 355.203 112.458C351.513 111.168 348.973 113.398 347.593 116.768C344.403 124.498 341.973 132.418 342.133 144.558ZM310.213 138.688C309.963 136.398 308.903 134.938 306.413 135.088C304.543 135.208 303.023 135.908 303.143 138.118C303.283 140.898 305.423 141.428 307.603 141.638C309.693 141.828 310.243 140.448 310.213 138.688Z" fill="#1D6877"/>
<path d="M190.683 250.938C189.783 253.108 190.093 254.498 190.833 255.698C198.993 268.878 202.803 283.888 208.783 297.988C210.973 303.168 213.483 308.208 215.943 313.268C217.143 315.728 218.843 318.478 215.823 320.348C212.373 322.478 209.803 319.818 208.143 317.198C205.063 312.318 202.683 307.008 200.803 301.558C195.713 286.798 190.763 271.978 185.883 257.148C184.163 251.918 184.853 246.528 185.533 241.188C185.843 238.728 187.283 238.208 189.463 238.998C192.413 240.068 194.353 242.218 195.883 244.838C203.043 257.118 209.653 269.688 215.483 282.668C215.893 283.588 215.813 285.248 217.383 284.928C218.533 284.698 218.273 283.298 218.403 282.378C219.433 275.408 219.233 268.318 220.573 261.348C222.333 252.188 224.523 243.168 227.733 234.408C228.573 232.118 229.803 230.118 231.953 228.768C235.553 226.498 238.743 223.838 241.273 220.308C243.143 217.718 246.443 218.768 247.563 222.248C248.573 225.398 248.293 228.668 247.943 231.908C245.513 254.208 243.063 276.508 240.683 298.808C240.373 301.748 240.523 304.738 240.203 307.678C240.013 309.438 239.753 311.708 237.443 311.868C235.273 312.018 234.953 309.778 234.503 308.268C232.293 300.848 232.283 293.258 233.003 285.608C234.123 273.668 235.143 261.718 236.183 249.778C236.273 248.798 236.263 247.798 236.193 246.818C236.143 246.018 236.263 244.958 235.183 244.768C234.173 244.588 233.613 245.498 233.413 246.268C232.523 249.668 231.493 253.058 230.993 256.528C228.723 272.438 225.733 288.258 225.293 304.388C225.213 307.338 224.983 310.348 221.273 310.798C217.563 311.248 216.653 308.138 215.653 305.538C209.523 289.638 202.173 274.288 195.003 258.848C193.833 256.308 192.323 253.918 190.683 250.938Z" fill="#D25827"/>
<path d="M108.463 295.188C98.2428 294.778 88.5428 292.848 81.2028 284.878C75.5228 278.718 74.9328 271.038 79.0028 263.778C84.0428 254.818 91.4028 248.908 101.343 246.338C104.333 245.568 106.163 243.668 107.753 241.228C111.463 235.508 116.203 230.818 121.343 226.288C133.803 215.308 161.283 222.768 167.413 241.688C171.313 253.728 162.513 267.148 149.833 268.088C149.413 268.118 148.983 268.158 148.563 268.138C139.183 267.698 136.703 269.358 135.083 279.088C133.643 287.758 127.913 292.538 119.423 294.108C115.823 294.778 112.183 295.298 108.463 295.188ZM105.293 255.458C96.1828 255.388 87.3128 263.168 86.1928 272.188C85.9528 274.138 86.4928 275.838 87.7828 277.268C92.4128 282.378 110.323 288.638 118.953 283.478C122.343 281.448 124.743 279.008 124.913 274.918C125.073 270.878 122.863 268.308 119.433 266.638C115.403 264.678 112.013 262.058 109.763 258.098C108.803 256.388 107.383 255.318 105.293 255.458ZM139.173 259.898C143.613 260.248 148.233 258.838 152.383 255.848C158.123 251.718 158.993 246.488 154.553 241.028C150.543 236.088 145.243 232.958 139.123 231.218C137.293 230.698 135.483 230.828 133.753 231.568C128.073 234.008 123.283 237.628 119.653 242.638C118.533 244.188 117.123 246.328 118.773 248.038C124.253 253.738 129.123 260.618 139.173 259.898Z" fill="#1D6877"/>
<path d="M73.0028 247.048C64.0428 247.318 56.3128 244.778 49.4728 239.448C42.4228 233.948 40.0228 225.668 43.7328 217.558C46.1528 212.288 48.1728 206.898 50.2428 201.508C55.4728 187.928 67.2628 180.068 81.8928 179.488C96.3828 178.908 107.673 184.158 115.753 196.288C121.843 205.428 121.413 218.218 114.493 226.728C110.843 231.218 107.153 235.698 102.243 238.928C90.2128 246.828 89.7928 245.718 73.0028 247.048ZM76.2328 238.168C84.3928 237.338 91.7728 234.298 98.4928 229.708C114.223 218.938 113.623 202.388 97.2328 192.768C96.5028 192.338 95.7328 191.988 94.9828 191.588C89.8828 188.838 84.9528 187.888 80.3028 192.568C79.5528 193.328 78.3828 193.758 77.3228 194.128C69.8428 196.748 64.3528 201.788 59.6528 208.008C56.4128 212.298 56.0428 216.838 57.8028 221.558C59.2728 225.488 61.5028 229.098 62.6428 233.218C63.3428 235.738 65.7428 236.808 68.2028 237.218C70.8528 237.658 73.5228 237.858 76.2328 238.168ZM51.9628 226.068C51.2328 226.198 50.8528 226.958 51.1128 227.828C52.0628 231.028 54.7528 232.618 57.3828 234.188C57.8328 234.458 58.4428 234.148 58.6028 233.448C58.8628 232.258 53.5628 226.008 51.9628 226.068Z" fill="#1D6877"/>
<path d="M517.333 463.848C517.553 444.238 519.293 424.698 520.373 405.138C520.843 396.548 519.203 387.938 520.633 379.368C521.093 376.598 521.683 373.818 522.603 371.178C523.783 367.788 526.293 365.888 530.053 366.168C533.863 366.448 535.303 369.228 535.913 372.398C536.823 377.108 537.203 381.908 536.793 386.718C535.053 406.848 534.923 426.988 535.753 447.168C536.243 459.138 535.903 471.148 536.003 483.138C536.043 487.818 534.133 491.358 530.103 493.598C524.193 496.888 518.493 493.818 517.993 487.108C517.403 479.368 517.173 471.608 517.333 463.848Z" fill="#D25827"/>
<path d="M260.033 449.258C259.643 449.828 259.343 450.518 258.833 450.948C257.883 451.738 256.953 452.898 255.523 452.428C253.953 451.918 254.293 450.338 254.163 449.168C253.313 441.308 252.803 433.418 252.843 425.498C252.923 408.558 254.033 391.408 251.453 374.768C249.793 364.018 256.383 357.228 258.653 348.518C260.493 341.458 263.613 334.728 266.093 327.828C266.563 326.518 267.283 324.868 266.873 323.738C265.243 319.138 268.023 317.678 271.363 315.808C278.373 311.888 284.263 306.408 290.503 301.398C296.183 296.828 301.803 292.098 308.343 288.708C309.963 287.868 311.603 287.058 312.393 284.768C310.033 284.998 308.553 286.308 307.033 287.378C295.303 295.658 283.623 304.008 271.923 312.328C271.463 312.658 271.023 313.048 270.523 313.278C269.143 313.908 267.583 315.028 266.303 313.458C265.173 312.088 266.313 310.738 267.193 309.678C272.723 303.028 279.033 297.228 286.433 292.718C293.533 288.398 300.123 283.278 307.493 279.378C310.383 277.848 313.253 276.348 316.523 275.948C320.393 275.468 321.603 276.938 320.493 280.558C319.183 284.828 316.903 288.278 313.373 291.238C302.933 300.018 293.253 309.678 282.143 317.708C277.393 321.138 274.983 326.428 273.623 331.968C271.513 340.518 267.163 348.188 264.373 356.458C264.333 356.588 264.293 356.758 264.193 356.838C256.303 362.448 258.633 370.748 259.103 378.168C260.283 396.778 260.813 415.398 260.653 434.038C260.633 436.128 260.623 438.228 261.343 440.238C258.493 442.878 260.143 446.198 260.033 449.258Z" fill="#D25827"/>
<path d="M328.313 205.638C328.213 221.088 317.813 228.338 302.623 228.528C293.633 228.638 284.843 226.158 279.473 217.758C272.463 206.798 273.873 186.398 282.283 176.508C286.173 171.928 291.243 169.858 297.363 170.578C313.883 172.548 328.373 188.918 328.313 205.638ZM303.303 217.038C310.963 217.048 318.853 208.938 316.513 202.458C313.243 193.388 307.503 185.938 297.863 182.538C295.463 181.688 293.033 181.808 291.233 183.828C289.333 185.958 289.893 188.248 291.363 190.408C293.243 193.168 292.783 195.638 290.643 198.058C289.123 199.778 288.253 201.778 288.183 204.188C287.973 211.688 294.193 217.018 303.303 217.038Z" fill="#1D6877"/>
<path d="M311.853 87.4677C311.673 103.998 299.493 117.198 283.193 118.508C269.143 119.638 258.083 108.568 259.083 94.4777C259.603 87.1377 262.153 80.5077 265.633 74.1377C266.963 71.6977 269.283 70.7177 271.483 69.5077C277.843 66.0077 284.383 63.0177 291.923 63.9677C304.663 65.5877 311.993 74.2877 311.853 87.4677ZM281.263 106.998C292.083 107.118 301.983 96.2877 300.583 85.8577C299.533 78.0477 291.113 73.2877 284.103 76.7977C278.193 79.7577 273.463 84.0977 270.643 90.2577C266.773 98.6577 271.993 106.888 281.263 106.998Z" fill="#1D6877"/>
<path d="M208.833 330.828C203.283 329.488 196.993 327.948 190.693 326.448C184.923 325.078 179.093 324.088 173.193 323.498C171.863 323.368 170.003 322.728 169.703 324.688C169.433 326.398 171.253 326.868 172.543 327.228C180.663 329.518 188.803 331.748 196.953 333.938C200.943 335.018 203.923 337.528 206.563 340.518C207.383 341.448 208.403 342.568 207.703 343.878C206.903 345.388 205.293 345.168 203.913 344.868C197.853 343.558 191.793 342.268 185.773 340.818C174.553 338.108 163.343 335.298 152.153 332.478C149.643 331.848 147.193 331.018 147.213 327.678C147.233 324.538 148.753 322.778 151.803 321.988C153.103 321.648 154.523 320.858 155.363 319.838C159.223 315.158 164.283 314.048 170.043 313.798C182.323 313.258 193.683 317.078 205.113 320.608C208.013 321.498 209.953 323.938 212.103 325.938C213.063 326.818 213.593 328.018 212.873 329.388C212.163 330.728 210.923 330.878 208.833 330.828Z" fill="#D25827"/>
<path d="M285.263 252.278C283.993 263.988 280.353 274.988 275.913 285.878C272.493 294.288 267.993 301.688 260.943 307.428C260.053 308.148 259.363 310.108 258.013 309.098C256.663 308.088 257.823 306.398 258.413 305.248C263.273 295.838 266.993 285.958 270.383 275.948C271.833 271.678 273.363 267.438 274.673 263.138C275.083 261.788 275.913 259.668 274.003 259.108C272.303 258.598 272.203 260.738 271.633 261.968C266.033 273.938 261.993 286.628 254.913 297.918C253.413 300.318 251.803 302.608 249.623 304.438C248.423 305.448 247.133 306.578 245.523 305.358C244.083 304.268 244.753 302.728 245.243 301.468C247.573 295.428 250.903 289.848 253.273 283.798C258.593 270.158 264.263 256.648 269.803 243.088C270.873 240.478 272.093 237.928 273.893 235.738C275.053 234.318 276.623 233.738 278.443 234.318C280.293 234.918 281.203 236.308 281.023 238.198C280.773 240.938 281.673 243.078 283.633 245.008C285.643 246.998 285.073 249.728 285.263 252.278Z" fill="#D25827"/>
<path d="M208.073 212.148C204.493 212.298 200.533 211.328 196.753 209.668C189.393 206.438 184.273 201.188 183.703 192.888C183.153 184.868 186.373 178.318 193.183 173.758C194.473 172.898 195.773 172.028 197.163 171.358C199.443 170.258 199.853 169.038 198.463 166.718C196.543 163.518 197.543 162.098 201.233 162.088C204.053 162.078 206.413 163.278 208.623 164.858C215.993 170.138 223.263 175.468 226.833 184.338C228.993 189.718 229.053 195.098 227.153 200.448C224.253 208.658 218.363 212.278 208.073 212.148ZM205.443 178.218C199.343 178.098 193.963 183.388 193.723 189.738C193.463 196.628 199.503 202.328 207.273 202.508C213.583 202.658 218.793 197.828 219.033 191.598C219.293 184.608 212.953 178.368 205.443 178.218Z" fill="#1D6877"/>
<path d="M352.213 268.308C352.913 252.128 360.303 243.678 372.903 243.988C380.253 244.168 391.383 253.218 390.513 263.808C389.503 276.208 380.193 284.958 367.693 284.298C358.843 283.848 351.853 276.628 352.213 268.308ZM378.233 263.328C378.143 259.958 374.623 256.808 371.103 256.968C366.933 257.158 363.183 261.568 363.423 266.008C363.613 269.578 366.433 272.558 369.423 272.358C373.203 272.098 378.323 266.848 378.233 263.328Z" fill="#1D6877"/>
<path d="M206.813 438.648C207.613 436.608 207.283 434.468 207.343 432.358C207.773 418.318 205.993 404.148 210.253 390.338C210.933 388.148 210.303 385.568 210.423 383.178C210.863 373.878 211.343 364.578 211.833 355.288C211.903 353.938 211.513 352.098 213.383 351.818C215.353 351.518 215.973 353.368 216.383 354.808C217.723 359.588 218.103 364.568 218.073 369.468C217.973 387.518 217.663 405.568 217.263 423.608C217.083 432.058 214.323 440.288 214.823 448.838C214.953 451.168 213.223 451.318 211.603 450.768C208.823 449.828 207.313 447.698 206.843 444.828C206.833 442.768 206.823 440.708 206.813 438.648Z" fill="#D25827"/>
<path d="M267.303 156.368C267.293 170.978 252.243 181.758 238.263 177.178C232.543 175.308 230.463 170.548 232.783 163.818C234.573 158.628 238.463 155.178 243.273 152.748C244.943 151.908 246.593 151.988 247.833 153.578C248.933 154.988 248.783 156.498 247.793 157.888C246.653 159.498 245.433 161.048 244.193 162.588C243.413 163.558 243.083 164.608 243.633 165.718C244.233 166.918 245.383 166.878 246.563 166.808C251.813 166.518 256.563 161.868 256.803 156.728C257.063 151.118 252.683 146.428 246.483 146.028C243.213 145.818 240.473 145.468 240.743 141.208C240.953 137.788 242.853 136.208 246.113 135.858C257.733 134.588 267.313 143.868 267.303 156.368Z" fill="#1D6877"/>
<path d="M153.243 211.428C147.853 211.308 143.383 210.748 138.983 209.718C137.503 209.368 136.043 208.748 134.693 208.038C131.973 206.608 130.543 204.348 130.683 201.178C130.823 198.198 132.673 196.528 135.183 195.648C139.813 194.018 143.123 191.768 144.313 186.328C145.283 181.868 149.773 180.508 154.013 180.198C164.493 179.448 173.753 188.998 172.853 199.438C172.373 205.008 169.493 208.528 164.073 209.998C162.173 210.508 160.223 210.908 158.273 211.158C156.333 211.388 154.353 211.368 153.243 211.428ZM154.133 203.088C157.983 203.028 162.153 199.788 162.093 196.898C162.033 193.668 158.353 190.318 154.953 190.378C151.293 190.448 148.683 193.428 148.733 197.478C148.773 201.028 150.803 203.138 154.133 203.088Z" fill="#1D6877"/>
<path d="M353.173 233.068C347.323 233.168 341.923 229.958 340.193 225.358C338.453 220.738 340.343 213.958 344.733 210.478C350.103 206.228 356.273 203.348 362.953 202.018C370.973 200.418 376.923 206.338 376.103 214.638C375.103 224.808 365.083 232.868 353.173 233.068ZM353.953 223.128C356.223 223.188 364.023 217.208 364.633 214.948C365.333 212.358 363.403 209.828 360.803 210.418C356.733 211.328 353.163 213.378 350.933 217.038C349.133 219.998 350.773 223.048 353.953 223.128Z" fill="#1D6877"/>
<path d="M260.033 449.258C260.143 446.198 258.493 442.888 261.363 440.238C266.513 438.528 271.473 435.838 277.233 437.278C278.843 437.678 281.013 437.518 280.873 439.848C280.743 441.968 278.653 441.828 277.233 441.658C269.953 440.788 265.283 445.638 260.033 449.258Z" fill="#1D6877"/>
<path d="M206.813 438.648C206.823 440.708 206.833 442.768 206.843 444.828C202.403 443.188 198.053 441.218 193.113 441.648C191.803 441.758 190.453 441.338 190.343 439.758C190.233 438.168 191.533 437.778 192.813 437.438C197.633 436.138 202.213 437.498 206.813 438.648Z" fill="#1D6877"/>
</svg>
